<?xml version="1.0" standalone="no"?>
<!DOCTYPE svg PUBLIC "-//W3C//DTD SVG 20010904//EN"
 "http://www.w3.org/TR/2001/REC-SVG-20010904/DTD/svg10.dtd">
<svg version="1.0" xmlns="http://www.w3.org/2000/svg"
 width="270.000000pt" height="270.000000pt" viewBox="0 0 270.000000 270.000000"
 preserveAspectRatio="xMidYMid meet">
<metadata>
Created by potrace 1.11, written by Peter Selinger 2001-2013
</metadata>
<g transform="translate(0.000000,270.000000) scale(0.100000,-0.100000)"
fill="#000000" stroke="none">
<path d="M1150 2635 c-363 -60 -675 -258 -880 -560 -86 -128 -144 -258 -187
-424 -26 -99 -28 -119 -28 -306 0 -177 3 -211 24 -295 127 -507 504 -875 1011
-986 66 -15 126 -19 270 -19 167 1 195 3 292 27 511 129 875 508 985 1028 24
118 24 372 0 490 -112 531 -499 921 -1027 1036 -103 22 -351 27 -460 9z m-190
-645 c16 -16 20 -33 20 -83 0 -75 -18 -107 -60 -107 -42 0 -60 32 -60 107 0
68 20 103 60 103 11 0 29 -9 40 -20z m287 -2 c19 -18 23 -32 23 -83 0 -71 -18
-105 -57 -105 -47 0 -63 25 -63 102 0 55 4 72 20 88 26 26 48 25 77 -2z m288
-3 c20 -19 25 -34 25 -75 0 -72 -22 -110 -64 -110 -41 0 -56 28 -56 106 0 64
3 75 22 88 31 22 45 20 73 -9z m283 9 c19 -13 22 -24 22 -86 0 -79 -15 -108
-56 -108 -41 0 -54 25 -54 105 0 65 3 76 22 89 12 9 27 16 33 16 6 0 21 -7 33
-16z m-710 -137 c4 -63 39 -97 99 -97 60 0 103 40 103 98 0 21 2 41 5 43 2 3
20 3 40 1 29 -4 35 -8 35 -28 0 -37 26 -91 48 -103 12 -6 39 -11 61 -11 57 0
91 32 98 93 l6 47 38 0 c37 0 39 -2 39 -30 0 -38 24 -86 49 -100 26 -13 87
-13 113 1 23 12 48 66 48 104 0 19 5 25 23 25 41 0 47 -17 47 -139 0 -92 -3
-118 -17 -133 -15 -17 -47 -18 -588 -18 -443 0 -575 3 -588 13 -15 11 -17 29
-15 142 l3 130 33 3 c31 3 32 2 32 -37 0 -28 8 -48 26 -70 22 -27 32 -31 74
-31 42 0 52 4 74 31 18 21 26 42 26 68 0 21 2 40 4 42 2 2 22 4 43 3 38 -1 38
-1 41 -47z m842 -306 c6 -13 10 -166 10 -430 0 -359 -2 -412 -16 -425 -14 -14
-81 -16 -593 -16 -435 0 -580 3 -589 12 -17 17 -17 849 0 866 9 9 155 12 595
12 565 0 583 -1 593 -19z"/>
<path d="M1340 1385 c-19 -9 -45 -26 -57 -37 l-23 -21 0 31 0 32 -100 0 -100
0 0 -275 0 -275 100 0 100 0 0 174 c0 167 1 176 23 201 33 39 94 45 133 12
l29 -25 3 -181 3 -181 95 0 94 0 0 208 c0 241 -8 270 -81 319 -35 23 -55 28
-113 31 -48 1 -82 -3 -106 -13z"/>
</g>
</svg>
